<svg width="300" height="80" viewBox="0 0 300 80" xmlns="http://www.w3.org/2000/svg">
  <rect x="10" y="10" width="2" height="60" fill="black" />
  <rect x="14" y="10" width="1" height="60" fill="black" />
  <rect x="17" y="10" width="3" height="60" fill="black" />
  <rect x="22" y="10" width="2" height="60" fill="black" />
  <rect x="26" y="10" width="4" height="60" fill="black" />
  <rect x="32" y="10" width="1" height="60" fill="black" />
  <rect x="35" y="10" width="3" height="60" fill="black" />
  <rect x="40" y="10" width="2" height="60" fill="black" />
  <rect x="44" y="10" width="1" height="60" fill="black" />
  <rect x="47" y="10" width="4" height="60" fill="black" />
  <rect x="53" y="10" width="2" height="60" fill="black" />
  <rect x="57" y="10" width="3" height="60" fill="black" />
  <rect x="62" y="10" width="1" height="60" fill="black" />
  <rect x="65" y="10" width="2" height="60" fill="black" />
  <rect x="69" y="10" width="4" height="60" fill="black" />
  <rect x="75" y="10" width="1" height="60" fill="black" />
  <rect x="78" y="10" width="3" height="60" fill="black" />
  <rect x="83" y="10" width="2" height="60" fill="black" />
  <rect x="87" y="10" width="1" height="60" fill="black" />
  <rect x="90" y="10" width="4" height="60" fill="black" />
  <rect x="96" y="10" width="2" height="60" fill="black" />
  <rect x="100" y="10" width="3" height="60" fill="black" />
  <rect x="105" y="10" width="1" height="60" fill="black" />
  <rect x="108" y="10" width="2" height="60" fill="black" />
  <rect x="112" y="10" width="4" height="60" fill="black" />
  <rect x="118" y="10" width="1" height="60" fill="black" />
  <rect x="121" y="10" width="3" height="60" fill="black" />
  <rect x="126" y="10" width="2" height="60" fill="black" />
  <rect x="130" y="10" width="1" height="60" fill="black" />
  <rect x="133" y="10" width="4" height="60" fill="black" />
  <rect x="139" y="10" width="2" height="60" fill="black" />
  <rect x="143" y="10" width="3" height="60" fill="black" />
  <rect x="148" y="10" width="1" height="60" fill="black" />
  <rect x="151" y="10" width="2" height="60" fill="black" />
  <rect x="155" y="10" width="4" height="60" fill="black" />
  <rect x="161" y="10" width="1" height="60" fill="black" />
  <rect x="164" y="10" width="3" height="60" fill="black" />
  <rect x="169" y="10" width="2" height="60" fill="black" />
  <rect x="173" y="10" width="1" height="60" fill="black" />
  <rect x="176" y="10" width="4" height="60" fill="black" />
  <rect x="182" y="10" width="2" height="60" fill="black" />
  <rect x="186" y="10" width="3" height="60" fill="black" />
  <rect x="191" y="10" width="1" height="60" fill="black" />
  <rect x="194" y="10" width="2" height="60" fill="black" />
  <rect x="198" y="10" width="4" height="60" fill="black" />
  <rect x="204" y="10" width="1" height="60" fill="black" />
  <rect x="207" y="10" width="3" height="60" fill="black" />
  <rect x="212" y="10" width="2" height="60" fill="black" />
  <rect x="216" y="10" width="1" height="60" fill="black" />
  <rect x="219" y="10" width="4" height="60" fill="black" />
  <rect x="225" y="10" width="2" height="60" fill="black" />
  <rect x="229" y="10" width="3" height="60" fill="black" />
  <rect x="234" y="10" width="1" height="60" fill="black" />
  <rect x="237" y="10" width="2" height="60" fill="black" />
  <rect x="241" y="10" width="4" height="60" fill="black" />
  <rect x="247" y="10" width="1" height="60" fill="black" />
  <rect x="250" y="10" width="3" height="60" fill="black" />
  <rect x="255" y="10" width="2" height="60" fill="black" />
  <rect x="259" y="10" width="1" height="60" fill="black" />
  <rect x="262" y="10" width="4" height="60" fill="black" />
  <rect x="268" y="10" width="2" height="60" fill="black" />
  <rect x="272" y="10" width="3" height="60" fill="black" />
  <rect x="277" y="10" width="1" height="60" fill="black" />
  <rect x="280" y="10" width="2" height="60" fill="black" />
  <rect x="284" y="10" width="4" height="60" fill="black" />
</svg>
